HIERARCHY
ROOT Hips
{
	OFFSET -3.958830 18.904000 13.208200
	CHANNELS 6 Xposition Yposition Zposition Zrotation Yrotation Xrotation 
	JOINT LHipJoint
	{
		OFFSET 0.000000 0.000000 0.000000
		CHANNELS 3 Zrotation Yrotation Xrotation
		JOINT LeftUpLeg
		{
			OFFSET 1.800000 -1.400000 0.085000
			CHANNELS 3 Zrotation Yrotation Xrotation
			JOINT LeftLeg
			{
				OFFSET 2.215000 -6.000000 0.000000
				CHANNELS 3 Zrotation Yrotation Xrotation
				JOINT LeftFoot
				{
					OFFSET 2.500000 -6.900000 0.000000
					CHANNELS 3 Zrotation Yrotation Xrotation
					JOINT LeftToeBase
					{
						OFFSET 0.200000 -0.500000 1.950000
						CHANNELS 3 Zrotation Yrotation Xrotation
						End Site
						{
							OFFSET 0.000000 0.000000 0.000000
						}
					}
				}
			}
		}
	}
	JOINT RHipJoint
	{
		OFFSET 0.000000 0.000000 0.000000
		CHANNELS 3 Zrotation Yrotation Xrotation
		JOINT RightUpLeg
		{
			OFFSET -1.800000 -1.400000 0.085000
			CHANNELS 3 Zrotation Yrotation Xrotation
			JOINT RightLeg
			{
				OFFSET -2.215000 -6.000000 0.000000
				CHANNELS 3 Zrotation Yrotation Xrotation
				JOINT RightFoot
				{
					OFFSET -2.500000 -6.900000 0.000000
					CHANNELS 3 Zrotation Yrotation Xrotation
					JOINT RightToeBase
					{
						OFFSET -0.200000 -0.500000 1.950000
						CHANNELS 3 Zrotation Yrotation Xrotation
						End Site
						{
							OFFSET 0.000000 0.000000 0.000000
						}
					}
				}
			}
		}
	}
	JOINT LowerBack
	{
		OFFSET 0.000000 0.000000 0.000000
		CHANNELS 3 Zrotation Yrotation Xrotation
		JOINT Spine
		{
			OFFSET -0.087000 1.940000 -0.288900
			CHANNELS 3 Zrotation Yrotation Xrotation
			JOINT Spine1
			{
				OFFSET 0.000000 1.950000 0.060000
				CHANNELS 3 Zrotation Yrotation Xrotation
				JOINT Neck
				{
					OFFSET 0.000000 0.000000 0.000000
					CHANNELS 3 Zrotation Yrotation Xrotation
					JOINT Neck1
					{
						OFFSET 0.000000 1.600000 0.340000
						CHANNELS 3 Zrotation Yrotation Xrotation
						JOINT Head
						{
							OFFSET 0.000000 1.667000 -0.240000
							CHANNELS 3 Zrotation Yrotation Xrotation
							End Site
							{
								OFFSET 0.000000 0.000000 0.000000
							}
						}
					}
				}
				JOINT LeftShoulder
				{
					OFFSET 0.000000 0.000000 0.000000
					CHANNELS 3 Zrotation Yrotation Xrotation
					JOINT LeftArm
					{
						OFFSET 2.700000 1.550000 -0.730000
						CHANNELS 3 Zrotation Yrotation Xrotation
						JOINT LeftForeArm
						{
							OFFSET 5.450000 0.000000 0.000000
							CHANNELS 3 Zrotation Yrotation Xrotation
							JOINT LeftHand
							{
								OFFSET 3.450000 0.000000 0.000000
								CHANNELS 3 Zrotation Yrotation Xrotation
								JOINT LeftHandIndex1
								{
									OFFSET 0.750000 0.000000 0.000000
									CHANNELS 3 Zrotation Yrotation Xrotation
									End Site
									{
										OFFSET 0.000000 0.000000 0.000000
									}
								}
							}
						}
					}
				}
				JOINT RightShoulder
				{
					OFFSET 0.000000 0.000000 0.000000
					CHANNELS 3 Zrotation Yrotation Xrotation
					JOINT RightArm
					{
						OFFSET -2.700000 1.550000 -0.730000
						CHANNELS 3 Zrotation Yrotation Xrotation
						JOINT RightForeArm
						{
							OFFSET -5.450000 0.000000 0.000000
							CHANNELS 3 Zrotation Yrotation Xrotation
							JOINT RightHand
							{
								OFFSET -3.450000 0.000000 0.000000
								CHANNELS 3 Zrotation Yrotation Xrotation
								JOINT RightHandIndex1
								{
									OFFSET -0.750000 0.000000 0.000000
									CHANNELS 3 Zrotation Yrotation Xrotation
									End Site
									{
										OFFSET 0.000000 0.000000 0.000000
									}
								}
							}
						}
					}
				}
			}
		}
	}
}
MOTION
Frames: 14
Frame Time: 0.016667
-0.568540 17.026790 -1.800090 -3.654025 5.325141 -16.874474 -14.237111 12.049217 2.493952 10.611158 0.730198 5.881508 -7.748800 6.002933 7.072838 -0.972244 5.880060 2.832875 -0.380990 -0.769570 -0.876970 19.168123 -12.343797 2.858997 -14.478657 -1.351868 8.807228 0.906025 -6.497666 6.774872 -1.012765 -5.557679 2.543493 -0.291680 1.161300 0.334060 -6.196989 2.209925 -7.394213 38.383348 -4.657247 14.793090 -28.849008 3.263991 25.267144 17.166542 -11.920005 -21.841306 -34.261493 11.114269 57.574359 11.933750 -14.639180 -28.852920 -29.681453 -28.414807 12.509019 -40.603130 -10.865124 -5.731427 3.420880 -22.152429 -4.555373 -3.496238 2.439663 1.433030 -0.009590 0.052040 0.399830 -1.130677 43.682994 10.696704 -14.368220 4.956718 -26.601488 -53.102438 34.908427 -15.925232 2.996508 -0.986995 -0.845090 1.184780 1.005650 0.144480 
-0.570370 17.025810 -1.807600 -3.633208 5.744685 -17.594858 -14.258460 12.122109 2.516613 10.668395 0.790926 6.358966 -7.525064 6.043664 7.345315 -0.967186 5.903719 2.819420 -0.354920 -0.732750 -0.855660 19.131413 -12.335661 2.863546 -14.600903 -1.467796 9.471373 0.823596 -6.561629 7.054761 -1.042532 -5.596544 2.528883 -0.273680 1.127870 0.326130 -6.125852 2.074848 -7.418687 38.157134 -4.925780 15.922047 -28.530253 2.942810 25.487470 17.647632 -12.114834 -21.572489 -34.528533 10.742515 57.156078 11.655490 -14.761090 -31.067830 -30.207945 -28.511899 12.668921 -39.756717 -11.485650 -6.017254 3.357156 -22.367776 -4.561253 -3.453495 2.437155 1.450520 -0.036620 0.073850 0.399260 -1.520649 44.023694 10.228709 -15.056095 4.637345 -27.476474 -54.309987 33.067317 -15.557746 2.982293 -0.939730 -0.839490 1.191790 0.988470 0.139210 
-0.571560 17.019910 -1.812350 -3.586659 6.501522 -18.042039 -14.284180 12.206227 2.528261 10.688712 0.826028 6.517956 -7.337874 6.090721 7.742322 -0.967309 5.927566 2.810505 -0.350490 -0.722640 -0.849240 19.091330 -12.315921 2.858747 -14.825825 -1.543701 9.882065 1.080451 -6.673173 7.411120 -1.051687 -5.634365 2.519955 -0.266850 1.116060 0.320870 -6.055876 1.911187 -7.429982 37.885959 -5.083027 16.509032 -28.228217 2.642523 25.435323 17.936007 -12.217929 -21.376566 -34.714076 10.551066 56.971723 10.998020 -14.839520 -31.941310 -30.577280 -28.659728 12.936462 -39.289468 -11.725569 -6.361651 3.256577 -22.972258 -4.630664 -3.432546 2.431664 1.455100 -0.042510 0.080160 0.396190 -1.731015 44.262186 9.920848 -15.873961 4.652767 -27.857015 -56.364991 30.024684 -14.959627 2.893964 -0.863232 -0.840590 1.200310 0.984980 0.135860 
-0.573530 17.021760 -1.816320 -3.480417 7.218920 -18.515756 -14.286329 12.212117 2.512548 10.760372 0.877200 6.815545 -7.289400 6.164922 8.154295 -0.966416 5.977830 2.794412 -0.342810 -0.707690 -0.865730 19.088244 -12.335081 2.851637 -15.030745 -1.644274 10.376736 1.065530 -6.766604 7.643010 -1.076636 -5.703847 2.501773 -0.258050 1.131320 0.332650 -6.065739 1.926492 -7.433924 37.782020 -5.180604 16.767449 -28.150081 2.410697 25.820312 18.073206 -12.297995 -21.302364 -34.928020 10.612133 56.908273 11.452790 -14.975400 -32.620860 -30.659695 -29.122954 13.323237 -38.465971 -11.984317 -6.545703 2.583696 -23.470931 -4.546124 -3.417107 2.441441 1.461030 -0.037390 0.085400 0.409710 -1.794093 44.672190 9.731243 -16.889179 4.728356 -28.233721 -58.453876 26.170688 -14.026510 2.813905 -0.808257 -0.837340 1.212500 0.989470 0.146620 
-0.573700 17.030540 -1.814660 -3.581092 7.329095 -19.032937 -14.281628 12.211474 2.478503 10.813416 0.895494 7.127619 -6.855791 6.148802 8.558469 -0.968866 5.988789 2.793341 -0.343460 -0.692950 -0.896570 19.094261 -12.353804 2.876447 -14.987104 -1.788889 11.079189 1.058980 -6.835240 7.540136 -1.106961 -5.778621 2.488002 -0.248200 1.152110 0.336180 -6.079143 1.970378 -7.421812 38.228684 -5.310201 17.020089 -28.108263 2.157562 26.183681 18.255408 -12.576352 -21.311378 -35.941663 11.010753 56.659657 12.125380 -15.242600 -33.456510 -30.953934 -29.519585 13.759160 -37.834034 -12.066191 -6.946292 2.234461 -24.319578 -4.590036 -3.397423 2.445565 1.461410 -0.033040 0.088280 0.423050 -1.673683 45.202711 9.620072 -18.469867 4.917950 -28.297195 -60.014524 22.736938 -13.012018 2.752582 -0.769724 -0.835470 1.235480 0.998830 0.164780 
-0.576380 17.039560 -1.811460 -3.365233 6.771644 -19.536113 -14.247908 12.118255 2.448281 10.672342 0.973015 7.878589 -6.640279 6.159486 8.758535 -0.931079 5.982194 2.784841 -0.308010 -0.628980 -0.895890 19.136189 -12.428572 2.885658 -15.377290 -1.845506 11.450034 1.024618 -6.880367 7.436245 -1.143835 -5.851747 2.457645 -0.225430 1.128960 0.349880 -6.163281 2.237298 -7.422120 38.633999 -5.230314 17.278246 -28.257560 2.118557 26.997115 18.499449 -12.890034 -21.186009 -36.590404 11.098282 56.237959 12.295130 -15.452090 -34.654470 -30.714839 -29.904236 14.206999 -36.739451 -12.183154 -7.692423 0.853490 -26.096302 -4.487553 -3.327701 2.510473 1.442750 -0.047750 0.113090 0.435330 -2.075282 45.736835 9.216146 -19.827225 5.525713 -28.548437 -61.252933 19.334582 -11.998267 2.751454 -0.778481 -0.793410 1.221490 0.976480 0.187460 
-0.576110 17.051280 -1.796540 -3.092306 5.629368 -19.756384 -14.189559 11.946987 2.411173 10.404691 1.068311 8.705854 -6.566911 6.164903 8.717415 -0.913046 5.995459 2.780199 -0.292750 -0.598820 -0.911570 19.213275 -12.544523 2.877101 -15.890695 -1.814890 11.459277 1.006699 -6.930433 7.432343 -1.153235 -5.928272 2.439703 -0.209580 1.137140 0.355110 -6.318108 2.684654 -7.410809 39.279976 -4.822840 16.898934 -28.432008 2.214256 27.973044 18.686016 -13.333548 -21.042713 -37.213812 11.230404 55.506622 12.538700 -15.702860 -34.910470 -30.398876 -30.299001 14.701343 -35.968532 -11.739250 -8.789655 -1.030552 -28.736626 -4.418236 -3.264065 2.578570 1.423260 -0.041420 0.108610 0.447930 -2.318605 46.375500 8.804424 -20.880377 6.377852 -28.793949 -62.398785 16.735912 -11.237834 2.750002 -0.782721 -0.777060 1.221590 0.971910 0.204530 
-0.572250 17.060090 -1.786170 -2.874512 4.997826 -20.063724 -14.157844 11.852408 2.387617 10.162962 1.131245 9.262855 -6.449356 6.177278 8.849173 -0.917590 6.019485 2.766207 -0.286060 -0.593480 -0.910150 19.255506 -12.614772 2.870775 -16.295661 -1.817763 11.698439 0.900905 -6.985168 7.493214 -1.165020 -5.997279 2.412766 -0.201750 1.134140 0.359590 -6.404071 2.925673 -7.408763 39.652114 -4.624989 16.689358 -28.601767 2.166208 28.821858 18.906551 -13.422244 -21.055620 -37.179225 11.258002 55.286955 12.389180 -15.767320 -34.998050 -30.004213 -30.894676 15.246339 -34.830623 -11.068782 -10.091314 -4.224875 -31.923370 -4.067177 -3.172492 2.660241 1.423320 -0.040790 0.106870 0.446390 -2.828373 46.966798 8.526262 -21.476185 6.851440 -29.072132 -63.457492 14.314825 -10.540402 2.755781 -0.789710 -0.775970 1.219110 0.975890 0.202190 
-0.570610 17.058090 -1.778440 -2.671132 4.474411 -20.218168 -14.132492 11.753717 2.345978 9.924281 1.194789 9.649052 -6.294862 6.176787 9.005203 -0.915965 6.042596 2.767397 -0.292790 -0.605110 -0.918270 19.298784 -12.671126 2.861059 -16.650646 -1.835708 11.817309 0.885609 -7.033928 7.447939 -1.163665 -6.072599 2.389702 -0.201380 1.156150 0.368860 -6.490018 3.148324 -7.397524 39.759099 -4.438316 16.376419 -28.470024 1.842228 29.640947 18.936167 -13.771526 -20.747551 -37.209427 10.963072 53.817007 11.960930 -15.758220 -34.187450 -28.965042 -31.493116 15.705746 -33.777419 -10.342350 -11.447972 -9.052055 -36.024300 -3.260975 -3.087474 2.763678 1.402720 -0.018180 0.088100 0.451550 -3.568013 47.373366 8.237003 -22.371409 7.260842 -29.127558 -63.747130 12.271687 -9.860370 2.765420 -0.815101 -0.778450 1.215320 0.980850 0.206670 
-0.571470 17.057050 -1.765920 -2.319365 3.572213 -20.333106 -14.087257 11.562865 2.291292 9.638976 1.315161 10.224493 -6.467307 6.238145 8.987568 -0.912069 6.095156 2.767869 -0.310510 -0.625190 -0.932030 19.376782 -12.769783 2.829358 -17.192528 -1.818949 11.767003 0.594438 -7.051063 7.420554 -1.154150 -6.151236 2.375681 -0.200640 1.194370 0.367140 -6.649212 3.571713 -7.385014 39.865284 -4.040904 15.846396 -28.357433 1.615840 30.712429 18.820279 -14.259406 -20.235587 -37.163201 10.554413 52.081252 11.659420 -15.723610 -33.320390 -27.052237 -32.054219 16.170378 -32.918395 -9.691508 -12.744698 -14.823171 -40.791765 -1.940197 -3.018002 2.839299 1.378790 0.013590 0.059940 0.456330 -4.719792 47.611230 7.722010 -23.080225 7.943048 -29.093346 -63.667133 9.899991 -9.031843 2.776396 -0.820323 -0.794130 1.231140 0.990250 0.211730 
-0.578110 17.056400 -1.759240 -1.680125 2.656487 -20.628590 -14.053184 11.395797 2.263355 9.070011 1.493009 10.989554 -6.456953 6.243978 8.841830 -0.928911 6.151040 2.761303 -0.332800 -0.654490 -0.945230 19.437842 -12.849191 2.792739 -18.081703 -1.766773 11.778320 0.507460 -7.136687 7.492633 -1.138747 -6.255379 2.349847 -0.197110 1.228970 0.366100 -6.779059 3.917586 -7.384837 39.220970 -3.712084 15.941083 -28.049929 1.311717 31.842325 18.732414 -14.787820 -19.469406 -36.744620 9.795660 49.909170 10.983240 -15.603790 -32.862440 -24.810969 -32.490564 16.664307 -31.728001 -9.422362 -14.164325 -21.490759 -46.208643 0.138053 -2.931554 2.919914 1.364040 0.048490 0.026630 0.451400 -6.226458 47.637305 7.075707 -24.231521 8.615828 -28.871262 -63.233320 6.342387 -7.798297 2.787152 -0.832848 -0.820600 1.247050 1.011640 0.204420 
-0.574730 17.053390 -1.754590 -1.590363 1.997326 -20.776521 -14.014630 11.226301 2.204822 8.922376 1.579358 11.416786 -6.451708 6.255033 8.879697 -0.924639 6.178976 2.753288 -0.336830 -0.649140 -0.955240 19.507113 -12.952311 2.754220 -18.380814 -1.848389 11.632281 0.338960 -7.182475 7.689516 -1.123296 -6.346255 2.323313 -0.184970 1.253020 0.392200 -6.935319 4.346343 -7.349462 39.224139 -3.485559 15.452042 -27.970528 0.888485 32.933662 18.538482 -15.021629 -18.409103 -35.196893 8.711298 47.736260 9.696490 -15.307070 -31.526760 -22.804710 -32.566515 16.990546 -29.756777 -9.362772 -14.894580 -30.389881 -51.883651 4.234155 -2.811812 3.066161 1.310990 0.100040 -0.000690 0.451360 -7.438031 46.959411 6.270329 -25.287090 9.749473 -28.169785 -62.448879 3.025271 -6.731118 2.790778 -0.892429 -0.807340 1.222110 1.015970 0.210030 
-0.574640 17.054220 -1.754160 -1.664525 1.709266 -21.231964 -13.996818 11.163075 2.197284 9.044184 1.679738 11.975739 -6.441646 6.287123 8.785863 -0.916199 6.220699 2.740974 -0.341490 -0.651650 -0.926900 19.532244 -13.001386 2.740969 -18.560496 -2.015340 11.869775 0.340514 -7.273282 7.832488 -1.135422 -6.400177 2.306927 -0.186540 1.239660 0.398410 -6.997192 4.512820 -7.351153 39.016378 -3.562840 15.787989 -27.873722 0.438587 33.707133 18.289467 -14.590604 -17.712618 -32.807636 7.586151 47.050767 8.503510 -14.633010 -31.598790 -21.379627 -33.173040 17.877102 -26.231591 -8.705814 -15.137411 -42.429544 -58.629236 11.748005 -2.425170 3.290279 1.305460 0.115540 0.004430 0.435850 -8.182544 46.628914 5.527104 -26.118507 10.763515 -27.669285 -62.489600 0.001577 -5.749144 2.819036 -0.904628 -0.809050 1.211840 1.008600 0.191580 
-0.576560 17.055590 -1.756120 -1.443942 1.265429 -21.647511 -13.974930 11.049845 2.198604 9.006105 1.837365 12.693061 -6.737098 6.365233 8.489189 -0.918211 6.317417 2.713227 -0.367100 -0.682820 -0.916470 19.570306 -13.046123 2.722136 -18.932979 -2.132465 11.993464 0.318126 -7.360497 7.794172 -1.128894 -6.477618 2.287349 -0.190220 1.255960 0.411290 -7.089280 4.754040 -7.337799 38.317577 -3.500872 16.198269 -27.491252 -0.034100 34.718381 17.943853 -14.250778 -16.719287 -30.320563 6.347490 45.405432 6.986020 -13.917360 -31.028520 -19.329354 -33.705181 18.482056 -22.674965 -7.961560 -13.065540 -57.656645 -67.355528 24.718160 -1.924846 3.758010 1.289540 0.158840 -0.014330 0.415480 -9.179430 46.064956 4.613407 -27.254004 11.658374 -27.150038 -62.034534 -2.657413 -4.835305 2.844568 -0.903693 -0.826650 1.208660 1.024660 0.170690 
